<svg width="34" height="38" viewBox="0 0 34 38" fill="none" xmlns="http://www.w3.org/2000/svg">
<path d="M0 18.75C0 19.2473 0.223109 19.7242 0.620245 20.0758C1.01738 20.4275 1.55601 20.625 2.11765 20.625H18.1906L13.32 24.9188C13.1215 25.0931 12.964 25.3004 12.8565 25.5289C12.749 25.7574 12.6936 26.0025 12.6936 26.25C12.6936 26.4975 12.749 26.7426 12.8565 26.9711C12.964 27.1996 13.1215 27.4069 13.32 27.5812C13.5169 27.757 13.7511 27.8965 14.0091 27.9917C14.2672 28.0869 14.544 28.1359 14.8235 28.1359C15.1031 28.1359 15.3799 28.0869 15.6379 27.9917C15.896 27.8965 16.1302 27.757 16.3271 27.5812L24.7976 20.0812C24.9904 19.9029 25.1416 19.6927 25.2424 19.4625C25.4542 19.006 25.4542 18.494 25.2424 18.0375C25.1416 17.8073 24.9904 17.5971 24.7976 17.4188L16.3271 9.91875C16.1296 9.74393 15.8952 9.60525 15.6372 9.51064C15.3793 9.41603 15.1028 9.36733 14.8235 9.36733C14.5443 9.36733 14.2678 9.41603 14.0098 9.51064C13.7518 9.60525 13.5174 9.74393 13.32 9.91875C13.1226 10.0936 12.9659 10.3011 12.8591 10.5295C12.7522 10.7579 12.6972 11.0028 12.6972 11.25C12.6972 11.4972 12.7522 11.7421 12.8591 11.9705C12.9659 12.1989 13.1226 12.4064 13.32 12.5813L18.1906 16.875H2.11765C1.55601 16.875 1.01738 17.0725 0.620245 17.4242C0.223109 17.7758 0 18.2527 0 18.75ZM27.5294 0H6.35294C4.66804 0 3.05214 0.592632 1.86073 1.64752C0.669326 2.70242 0 4.13316 0 5.625V11.25C0 11.7473 0.223109 12.2242 0.620245 12.5758C1.01738 12.9275 1.55601 13.125 2.11765 13.125C2.67928 13.125 3.21791 12.9275 3.61505 12.5758C4.01219 12.2242 4.23529 11.7473 4.23529 11.25V5.625C4.23529 5.12772 4.4584 4.65081 4.85554 4.29918C5.25268 3.94754 5.79131 3.75 6.35294 3.75H27.5294C28.091 3.75 28.6297 3.94754 29.0268 4.29918C29.424 4.65081 29.6471 5.12772 29.6471 5.625V31.875C29.6471 32.3723 29.424 32.8492 29.0268 33.2008C28.6297 33.5525 28.091 33.75 27.5294 33.75H6.35294C5.79131 33.75 5.25268 33.5525 4.85554 33.2008C4.4584 32.8492 4.23529 32.3723 4.23529 31.875V26.25C4.23529 25.7527 4.01219 25.2758 3.61505 24.9242C3.21791 24.5725 2.67928 24.375 2.11765 24.375C1.55601 24.375 1.01738 24.5725 0.620245 24.9242C0.223109 25.2758 0 25.7527 0 26.25V31.875C0 33.3668 0.669326 34.7976 1.86073 35.8525C3.05214 36.9074 4.66804 37.5 6.35294 37.5H27.5294C29.2143 37.5 30.8302 36.9074 32.0216 35.8525C33.213 34.7976 33.8824 33.3668 33.8824 31.875V5.625C33.8824 4.13316 33.213 2.70242 32.0216 1.64752C30.8302 0.592632 29.2143 0 27.5294 0Z" fill="#ED145B"/>
</svg>
